<svg xmlns="http://www.w3.org/2000/svg" viewBox="0 0 127.71 48.33"><defs><style>.cls-1,.cls-2{fill:#fff;}.cls-2,.cls-3{fill-rule:evenodd;}.cls-3{fill:#d2d4eb;}</style></defs><g id="Capa_2" data-name="Capa 2"><g id="Capa_1-2" data-name="Capa 1"><path class="cls-1" d="M62.51,31.86a4.41,4.41,0,0,1-2.1-.45,4.17,4.17,0,0,1-1.35-1.12v.88a.45.45,0,0,1-.13.34.45.45,0,0,1-.35.14h-1a.42.42,0,0,1-.34-.14.46.46,0,0,1-.14-.34v-14a.48.48,0,0,1,.48-.48h1a.46.46,0,0,1,.36.14.49.49,0,0,1,.13.34v4.83A4.46,4.46,0,0,1,60.46,21a4.38,4.38,0,0,1,2-.44,4.51,4.51,0,0,1,2,.41,3.76,3.76,0,0,1,1.37,1.12,5.35,5.35,0,0,1,.81,1.62A6.91,6.91,0,0,1,67,25.56c0,.23,0,.44,0,.63s0,.41,0,.63a7,7,0,0,1-.29,1.91,5.19,5.19,0,0,1-.81,1.61,3.74,3.74,0,0,1-1.37,1.11A4.38,4.38,0,0,1,62.51,31.86Zm-.44-1.7a2.8,2.8,0,0,0,1.71-.47,2.66,2.66,0,0,0,.89-1.24A5.82,5.82,0,0,0,65,26.8c0-.41,0-.81,0-1.22a5.89,5.89,0,0,0-.32-1.65,2.66,2.66,0,0,0-.89-1.24,3.25,3.25,0,0,0-3.35,0,2.87,2.87,0,0,0-1,1.18,3.61,3.61,0,0,0-.34,1.45q0,.33,0,.81t0,.81a4.58,4.58,0,0,0,.34,1.52,2.81,2.81,0,0,0,.95,1.23A2.69,2.69,0,0,0,62.07,30.16Z"/><path class="cls-1" d="M71.52,35.64a.42.42,0,0,1-.3-.12.44.44,0,0,1-.12-.3.52.52,0,0,1,0-.17,1.19,1.19,0,0,1,.08-.21L72.82,31l-4-9.47a1.19,1.19,0,0,1-.11-.36.44.44,0,0,1,.44-.44h1a.51.51,0,0,1,.51.36l3.19,7.64,3.27-7.64a.94.94,0,0,1,.18-.25.52.52,0,0,1,.35-.11h1a.4.4,0,0,1,.31.13.37.37,0,0,1,.13.29,1.35,1.35,0,0,1-.11.38L73,35.28a.68.68,0,0,1-.18.26.5.5,0,0,1-.35.1Z"/><path class="cls-1" d="M85.44,31.65a3.6,3.6,0,0,1-1.91-.45,2.59,2.59,0,0,1-1.07-1.28,5.09,5.09,0,0,1-.34-2V22.41H80.48a.45.45,0,0,1-.34-.13.5.5,0,0,1-.14-.35v-.72a.48.48,0,0,1,.48-.48h1.64V17.22a.48.48,0,0,1,.48-.48h1a.48.48,0,0,1,.35.14.45.45,0,0,1,.13.34v3.51h2.61a.46.46,0,0,1,.34.14.42.42,0,0,1,.14.34v.72a.46.46,0,0,1-.14.35.45.45,0,0,1-.34.13H84.07v5.4a3.07,3.07,0,0,0,.34,1.55,1.27,1.27,0,0,0,1.2.57h1.28a.46.46,0,0,1,.34.14.42.42,0,0,1,.14.34v.76a.48.48,0,0,1-.48.48Z"/><path class="cls-1" d="M93.73,31.86a4.53,4.53,0,0,1-3.44-1.33,5.57,5.57,0,0,1-1.41-3.65c0-.18,0-.41,0-.7s0-.52,0-.7a6.15,6.15,0,0,1,.7-2.62,4.28,4.28,0,0,1,1.67-1.73,4.83,4.83,0,0,1,2.48-.61,5,5,0,0,1,2.68.67,4.35,4.35,0,0,1,1.65,1.91,6.92,6.92,0,0,1,.57,2.9v.36a.49.49,0,0,1-.14.36.51.51,0,0,1-.35.12H90.88V27a4.32,4.32,0,0,0,.38,1.61,3,3,0,0,0,1,1.21,2.55,2.55,0,0,0,1.51.46A3.05,3.05,0,0,0,95,30.08a3.31,3.31,0,0,0,.82-.52,3.11,3.11,0,0,0,.42-.43,1,1,0,0,1,.3-.32.69.69,0,0,1,.33-.06h1a.51.51,0,0,1,.35.12.33.33,0,0,1,.11.32A1.57,1.57,0,0,1,98,30a3.86,3.86,0,0,1-.91.89,4.86,4.86,0,0,1-1.42.73A6.05,6.05,0,0,1,93.73,31.86Zm-2.85-6.47h5.75v-.06a3.91,3.91,0,0,0-.34-1.68,2.83,2.83,0,0,0-1-1.16,2.75,2.75,0,0,0-1.56-.44,2.68,2.68,0,0,0-1.54.44,2.72,2.72,0,0,0-1,1.16,4.06,4.06,0,0,0-.33,1.68Z"/><path class="cls-1" d="M101.65,31.65a.46.46,0,0,1-.35-.14.45.45,0,0,1-.13-.34v-14a.45.45,0,0,1,.13-.34.5.5,0,0,1,.35-.14h1a.46.46,0,0,1,.48.48v14a.45.45,0,0,1-.13.34.42.42,0,0,1-.35.14Z"/><path class="cls-1" d="M110.72,31.86a5.26,5.26,0,0,1-2.66-.61,4,4,0,0,1-1.64-1.69,5.74,5.74,0,0,1-.63-2.47c0-.23,0-.54,0-.91s0-.67,0-.89a5.58,5.58,0,0,1,.64-2.48,4.17,4.17,0,0,1,1.65-1.68,5.21,5.21,0,0,1,2.64-.61,5.27,5.27,0,0,1,2.65.61A4.3,4.3,0,0,1,115,22.81a5.72,5.72,0,0,1,.64,2.48c0,.22,0,.52,0,.89s0,.68,0,.91a5.74,5.74,0,0,1-.63,2.47,4.11,4.11,0,0,1-1.64,1.69A5.27,5.27,0,0,1,110.72,31.86Zm0-1.62a2.72,2.72,0,0,0,2.08-.82,3.66,3.66,0,0,0,.84-2.43c0-.21,0-.48,0-.8s0-.59,0-.8A3.61,3.61,0,0,0,112.8,23a2.73,2.73,0,0,0-2.08-.83,2.76,2.76,0,0,0-2.09.83,3.56,3.56,0,0,0-.83,2.42c0,.21,0,.48,0,.8s0,.59,0,.8a3.6,3.6,0,0,0,.83,2.43A2.76,2.76,0,0,0,110.72,30.24Z"/><path class="cls-1" d="M122.78,36.27a6,6,0,0,1-2.34-.38A4.05,4.05,0,0,1,119,35a3.45,3.45,0,0,1-.74-1.07,3,3,0,0,1-.24-.85.42.42,0,0,1,.14-.36.48.48,0,0,1,.34-.15h1a.55.55,0,0,1,.32.09.65.65,0,0,1,.21.36,4.39,4.39,0,0,0,.37.7,2.09,2.09,0,0,0,.78.67,3.12,3.12,0,0,0,1.47.28,4.49,4.49,0,0,0,1.66-.26,1.87,1.87,0,0,0,1-.92,4,4,0,0,0,.35-1.82V30.22a3.86,3.86,0,0,1-1.33,1.08,4.34,4.34,0,0,1-2.06.44,4.59,4.59,0,0,1-2-.41,3.9,3.9,0,0,1-1.38-1.12,4.89,4.89,0,0,1-.79-1.6,7.94,7.94,0,0,1-.31-1.89c0-.4,0-.78,0-1.16a7.78,7.78,0,0,1,.31-1.89,5.09,5.09,0,0,1,.79-1.62,3.79,3.79,0,0,1,1.38-1.12,4.59,4.59,0,0,1,2-.41,4.22,4.22,0,0,1,2.09.47,4.54,4.54,0,0,1,1.36,1.15v-.9a.48.48,0,0,1,.14-.36.43.43,0,0,1,.34-.15h1a.45.45,0,0,1,.35.15.49.49,0,0,1,.15.36V31.42a6.33,6.33,0,0,1-.47,2.5,3.63,3.63,0,0,1-1.55,1.72A5.82,5.82,0,0,1,122.78,36.27Zm0-6.21a2.74,2.74,0,0,0,1.69-.49,2.84,2.84,0,0,0,1-1.22,4.34,4.34,0,0,0,.33-1.49c0-.19,0-.43,0-.72s0-.53,0-.73a4.4,4.4,0,0,0-.33-1.49,2.81,2.81,0,0,0-1-1.21,2.67,2.67,0,0,0-1.69-.49,2.77,2.77,0,0,0-1.68.47,2.62,2.62,0,0,0-.9,1.24,5.55,5.55,0,0,0-.31,1.65,10.46,10.46,0,0,0,0,1.12,5.49,5.49,0,0,0,.31,1.64,2.52,2.52,0,0,0,.9,1.24A2.7,2.7,0,0,0,122.73,30.06Z"/><polygon class="cls-2" points="0 0 16.11 0 16.11 16.11 0 16.11 0 0 0 0"/><polygon class="cls-2" points="32.22 0 48.33 0 48.33 16.11 48.33 32.22 48.33 48.33 32.22 48.33 32.22 32.22 32.22 16.11 32.22 0 32.22 0"/><polygon class="cls-3" points="16.11 16.11 16.11 32.22 0 32.22 0 48.33 16.11 48.33 32.22 48.33 32.22 32.22 32.22 16.11 16.11 16.11"/></g></g></svg>